<svg width="16" height="11" viewBox="0 0 16 11" fill="none" xmlns="http://www.w3.org/2000/svg">
<path d="M12.492 7C11.7998 7 11.1231 6.79473 10.5475 6.41015C9.97194 6.02556 9.52333 5.47894 9.25843 4.83939C8.99352 4.19985 8.92421 3.49612 9.05926 2.81719C9.19431 2.13825 9.52765 1.51461 10.0171 1.02513C10.5066 0.535644 11.1303 0.202301 11.8092 0.0672531C12.4881 -0.0677952 13.1919 0.00151649 13.8314 0.266423C14.4709 0.53133 15.0176 0.979934 15.4022 1.55551C15.7867 2.13108 15.992 2.80777 15.992 3.5L16.008 4C16.008 4.91925 15.8269 5.82951 15.4752 6.67879C15.1234 7.52806 14.6078 8.29974 13.9578 8.94975C13.3077 9.59976 12.5361 10.1154 11.6868 10.4672C10.8375 10.8189 9.92726 11 9.00801 11V9C9.6649 9.00177 10.3156 8.87329 10.9226 8.622C11.5295 8.37072 12.0806 8.0016 12.544 7.536C12.7241 7.35624 12.8903 7.16301 13.041 6.958C12.8594 6.98654 12.6758 7.00092 12.492 7.001V7ZM3.49201 7C2.79977 7 2.12308 6.79473 1.54751 6.41015C0.971938 6.02556 0.523334 5.47894 0.258428 4.83939C-0.00647908 4.19985 -0.0757908 3.49612 0.0592575 2.81719C0.194306 2.13825 0.527648 1.51461 1.01713 1.02513C1.50662 0.535644 2.13026 0.202301 2.80919 0.0672531C3.48812 -0.0677952 4.19186 0.00151649 4.8314 0.266423C5.47094 0.53133 6.01756 0.979934 6.40215 1.55551C6.78673 2.13108 6.99201 2.80777 6.99201 3.5L7.00801 4C7.00801 5.85652 6.27051 7.63699 4.95775 8.94975C3.645 10.2625 1.86452 11 0.00800596 11V9C0.664904 9.00177 1.31564 8.87329 1.92257 8.622C2.52951 8.37072 3.08061 8.0016 3.54401 7.536C3.72411 7.35624 3.89026 7.16301 4.04101 6.958C3.8594 6.98654 3.67584 7.00092 3.49201 7.001V7Z" fill="black"/>
</svg>
